#!OML:ASF F:\VICON\USERDATA\INSTALL\rory3\rory3.ASF
:FULLY-SPECIFIED
:DEGREES
203
root 0.6205597571086836 17.72700446572042 33.87489301123572 1.128027241649423 -1.122077413918087 -0.8747943640995179
lfemur -17.119804711949985 3.5246734423095365 -22.866897377103292
ltibia 49.39241388575259
lfoot 1.7607679134442682 -8.313574719520373
ltoes -8.247848989141607
rfemur -24.40006383364931 3.9409081503500274 27.22216462306077
rtibia 57.25063528967058
rfoot 3.2773142972468943 -4.841902890602004
rtoes 0.6541388640838535
lowerback 14.478928970500116 0.5263357275890429 1.2868910613688513
upperback -1.0490858781142542 1.250135167799273 1.266371400420587
thorax -9.221163647905612 0.7154995405049568 1.0516358336002403
lowerneck -19.999156883135615 -3.7164544184361095 -2.4709930566591143
upperneck 12.678997042202662 -5.594262976374797 5.1574077345201
head 7.43249560108843 -2.1169304493185694 1.5390266363684229
lclavicle 2.9801515526439752e-15 1.1900897868484632e-16
lhumerus -46.90701994879124 -12.34827456580084 95.55407028805594
lradius 113.70025557825606
lwrist 34.23137906684206
lhand -20.617385251821577 2.977730369609579
lfingers 7.125019999999999
lthumb 5.486043103377413 32.264232882669916
rclavicle 2.9801381671163078e-15 1.1900166246856291e-16
rhumerus -49.708577920634845 11.667928137436162 -97.43535324152778
rradius 110.37356822971797
rwrist -15.427043164331867
rhand -15.694278848323767 38.50120953008485
rfingers 7.125019999999999
rthumb 10.603438490711453 8.443350668758535
204
root 0.6320724337204843 17.79469186049372 35.86109620441561 1.3106849269353713 -0.7913934214043389 -0.6319921053496536
lfemur -18.881285476122297 2.9757344016090252 -23.558003684193594
ltibia 50.026194123493966
lfoot 0.9033201548653539 -8.7817359934507
ltoes -9.001949421586266
rfemur -25.536438018071983 3.866028703329354 26.755602025298302
rtibia 57.73917638813882
rfoot 2.8629137150297668 -4.42719218134982
rtoes 0.7877845800365645
lowerback 14.388276953376016 0.4498203749555316 0.9968426279437131
upperback -0.9998639216154828 1.2668905569867834 1.328676790354042
thorax -9.225655993223567 0.6402346125679526 1.10502308962852
lowerneck -20.07357563891527 -3.832529808306302 -2.5246756946184794
upperneck 12.702320456496102 -5.620400895690373 5.168788135584612
head 7.41899211643478 -2.1587729973603524 1.5055918879042691
lclavicle 2.9801515526439752e-15 1.1900897868484632e-16
lhumerus -45.36846946913658 -11.643885572677211 95.87765884396384
lradius 113.82174771742392
lwrist 34.38176500117209
lhand -20.635162555728968 2.9220012264811768
lfingers 7.125019999999999
lthumb 5.427694779699699 32.17926545539231
rclavicle 2.9801381671163078e-15 1.1900166246856291e-16
rhumerus -49.785516272931964 11.604148180666812 -97.41351902326457
rradius 110.61084916018665
rwrist -15.418770543298752
rhand -15.71822646586351 38.48369351352227
rfingers 7.125019999999999
rthumb 10.578684846179163 8.401980600622132
205
root 0.6304436923969379 17.795870513328637 34.936729421864825 1.3094273042801954 -0.9192241564234869 -0.7857100635275138
lfemur -15.555485251607191 3.5623865366003535 -22.563103279646256
ltibia 50.72750715171829
lfoot -0.35547876195804684 -9.320994715846957
ltoes -9.366024402457787
rfemur -25.310586725594376 3.8470467378494115 27.09541555273471
rtibia 57.820533340793055
rfoot 1.7016495954706636 -4.441840869319917
rtoes 0.5903982434883898
lowerback 14.36241751517366 0.4045176013304292 0.7963708612411591
upperback -0.9862368954359357 1.2205456033859123 1.3608376675707685
thorax -9.262175330516419 0.5840202335246295 0.9643334176747236
lowerneck -19.963450588066 -3.7766075083256503 -2.504039329695704
upperneck 12.618223992655432 -5.690706207328243 5.131672708536449
head 7.418026648094895 -2.1698386641118512 1.49424902604855
lclavicle 2.9801515526439752e-15 1.1900897868484632e-16
lhumerus -45.191399792041274 -12.025135296649202 95.88004960373054
lradius 113.37835644205047
lwrist 34.31118015077019
lhand -20.62762140402124 2.880763042536167
lfingers 7.125019999999999
lthumb 5.466240642794051 32.25815953455973
rclavicle 2.9801381671163078e-15 1.1900166246856291e-16
rhumerus -49.93401564297457 11.491296910479795 -97.40636963741463
rradius 110.67030796006104
rwrist -15.415611590963278
rhand -15.74541738975438 38.47344513443788
rfingers 7.125019999999999
rthumb 10.627030208028428 8.406681058662171
206
root 0.6335628539942282 17.808878807595775 34.851375901541616 1.3334933106629965 -0.971089177301865 -0.7796332620774118
lfemur -18.14228466322524 2.9156311224480653 -23.523409986403532
ltibia 51.46630193338229
lfoot 0.9046172659942948 -9.338753723108017
ltoes -9.463211886182322
rfemur -22.624888467333413 4.280715343603147 27.951111854242203
rtibia 58.04184198697568
rfoot 1.5104331861926386 -4.53837078145258
rtoes 0.06568865314750649
lowerback 14.257360714243088 0.26938625594290744 0.5329675108841907
upperback -1.027470405968758 1.0711004036825635 1.3551502028308342
thorax -9.269296371588943 0.5262548934978268 0.9956140552230025
lowerneck -19.968746014025697 -3.8658338066122218 -2.5381921003808117
upperneck 12.594743900286701 -5.721005096781297 5.1790058374279155
head 7.4076078667732865 -2.2267677861117496 1.462485942976133
lclavicle 2.9801515526439752e-15 1.1900897868484632e-16
lhumerus -44.863418098700784 -11.790490693482571 95.80220156755853
lradius 112.47275826260525
lwrist 34.36523186371162
lhand -20.552263929733606 2.9272678358312194
lfingers 7.125019999999999
lthumb 5.420115788232478 32.17799257453247
rclavicle 2.9801381671163078e-15 1.1900166246856291e-16
rhumerus -50.116216360144506 11.375771469771951 -97.4166970224167
rradius 110.69967290364326
rwrist -15.435335284909618
rhand -15.733505229505912 38.47562971229184
rfingers 7.125019999999999
rthumb 10.59986272515784 8.400605402598524
